<svg width="325" height="185" viewBox="0 0 325 185" fill="none" xmlns="http://www.w3.org/2000/svg">
<path d="M324.414 102.914C325.195 102.133 325.195 100.867 324.414 100.086L311.686 87.3579C310.905 86.5768 309.639 86.5768 308.858 87.3579C308.077 88.1389 308.077 89.4052 308.858 90.1863L320.172 101.5L308.858 112.814C308.077 113.595 308.077 114.861 308.858 115.642C309.639 116.423 310.905 116.423 311.686 115.642L324.414 102.914ZM143.033 182.396L143.032 180.396L143.033 182.396ZM3.79333 7.90835C4.43039 8.8107 5.67833 9.02575 6.58067 8.38869C7.48302 7.75162 7.69807 6.50369 7.06101 5.60134L3.79333 7.90835ZM13.7158 15.3765C13.1084 14.454 11.8681 14.1984 10.9455 14.8058C10.023 15.4132 9.76743 16.6535 10.3748 17.576L13.7158 15.3765ZM16.6896 27.4406C17.2743 28.3778 18.508 28.6635 19.4451 28.0788C20.3823 27.4941 20.668 26.2604 20.0833 25.3233L16.6896 27.4406ZM26.236 35.3964C25.6683 34.4489 24.44 34.141 23.4924 34.7086C22.5449 35.2763 22.237 36.5047 22.8047 37.4522L26.236 35.3964ZM28.7648 47.5555C29.3203 48.5102 30.5446 48.8338 31.4993 48.2783C32.4541 47.7228 32.7777 46.4985 32.2222 45.5438L28.7648 47.5555ZM38.1022 55.7554C37.5547 54.7961 36.3332 54.4623 35.3738 55.0098C34.4145 55.5573 34.0807 56.7789 34.6282 57.7382L38.1022 55.7554ZM40.4284 67.9593C40.9718 68.921 42.1919 69.2601 43.1536 68.7167C44.1152 68.1733 44.4543 66.9532 43.9109 65.9915L40.4284 67.9593ZM49.6924 76.236C49.1495 75.2741 47.9295 74.9345 46.9676 75.4775C46.0057 76.0204 45.6661 77.2404 46.2091 78.2023L49.6924 76.236ZM52.006 88.4385C52.5523 89.3986 53.7734 89.734 54.7334 89.1877C55.6934 88.6415 56.0289 87.4204 55.4826 86.4603L52.006 88.4385ZM61.3308 96.6575C60.7773 95.7016 59.5537 95.3753 58.5978 95.9288C57.6419 96.4823 57.3157 97.7058 57.8692 98.6617L61.3308 96.6575ZM63.8307 108.825C64.3956 109.775 65.6231 110.086 66.5722 109.521C67.5214 108.956 67.8328 107.729 67.2678 106.779L63.8307 108.825ZM73.3489 116.806C72.7675 115.867 71.5348 115.577 70.5956 116.159C69.6565 116.74 69.3666 117.973 69.9481 118.912L73.3489 116.806ZM76.2824 128.885C76.8864 129.81 78.1257 130.07 79.0505 129.466C79.9753 128.862 80.2354 127.623 79.6314 126.698L76.2824 128.885ZM86.1758 136.386C85.5418 135.481 84.2946 135.262 83.3901 135.896C82.4856 136.53 82.2663 137.777 82.9003 138.682L86.1758 136.386ZM89.9059 148.238C90.5797 149.114 91.8355 149.277 92.7107 148.603C93.586 147.929 93.7493 146.674 93.0755 145.798L89.9059 148.238ZM100.448 154.817C99.7211 153.985 98.4576 153.9 97.6257 154.626C96.7939 155.353 96.7086 156.617 97.4353 157.448L100.448 154.817ZM105.647 166.1C106.444 166.865 107.71 166.839 108.475 166.042C109.24 165.245 109.214 163.979 108.417 163.214L105.647 166.1ZM117.172 170.657C116.283 170.002 115.031 170.191 114.375 171.08C113.719 171.968 113.908 173.221 114.797 173.876L117.172 170.657ZM125.172 180.163C126.17 180.635 127.362 180.208 127.834 179.209C128.306 178.21 127.879 177.018 126.88 176.546L125.172 180.163ZM137.505 179.943C136.415 179.763 135.386 180.502 135.207 181.592C135.027 182.682 135.766 183.71 136.856 183.89L137.505 179.943ZM148.778 184.304C149.882 184.267 150.748 183.343 150.711 182.239C150.675 181.135 149.75 180.27 148.646 180.306L148.778 184.304ZM159.719 179.471C158.623 179.609 157.846 180.609 157.983 181.705C158.121 182.801 159.121 183.577 160.217 183.44L159.719 179.471ZM171.604 181.215C172.668 180.919 173.291 179.816 172.995 178.752C172.699 177.688 171.596 177.065 170.532 177.361L171.604 181.215ZM180.685 173.441C179.7 173.942 179.308 175.146 179.809 176.131C180.31 177.115 181.514 177.507 182.499 177.006L180.685 173.441ZM192.331 170.787C193.214 170.123 193.393 168.87 192.729 167.986C192.066 167.103 190.812 166.925 189.929 167.588L192.331 170.787ZM198.544 160.498C197.711 161.222 197.622 162.485 198.347 163.319C199.072 164.153 200.335 164.241 201.168 163.516L198.544 160.498ZM209.694 156.102C210.534 155.385 210.634 154.123 209.917 153.283C209.199 152.443 207.937 152.343 207.097 153.06L209.694 156.102ZM215.916 145.836C215.045 146.516 214.89 147.773 215.57 148.644C216.25 149.514 217.507 149.669 218.377 148.989L215.916 145.836ZM227.365 142.343C228.27 141.71 228.49 140.463 227.857 139.557C227.224 138.652 225.977 138.432 225.072 139.065L227.365 142.343ZM234.604 132.755C233.668 133.342 233.385 134.576 233.971 135.512C234.558 136.448 235.792 136.731 236.728 136.145L234.604 132.755ZM246.274 130.45C247.234 129.903 247.568 128.681 247.02 127.722C246.473 126.763 245.251 126.429 244.292 126.976L246.274 130.45ZM254.082 121.63C253.102 122.141 252.722 123.349 253.233 124.328C253.743 125.308 254.951 125.688 255.931 125.177L254.082 121.63ZM265.779 120.294C266.779 119.824 267.209 118.633 266.739 117.633C266.269 116.634 265.078 116.204 264.078 116.674L265.779 120.294ZM274.266 112.16C273.246 112.584 272.763 113.755 273.187 114.775C273.611 115.795 274.782 116.278 275.802 115.854L274.266 112.16ZM286.024 111.898C287.064 111.526 287.605 110.381 287.233 109.341C286.862 108.301 285.717 107.76 284.677 108.132L286.024 111.898ZM295.322 104.661C294.262 104.972 293.655 106.083 293.966 107.143C294.277 108.203 295.389 108.81 296.449 108.499L295.322 104.661ZM307.032 105.774C308.111 105.537 308.794 104.471 308.557 103.392C308.32 102.313 307.254 101.63 306.175 101.867L307.032 105.774ZM317.261 99.9471C316.164 100.079 315.382 101.075 315.514 102.171C315.646 103.268 316.642 104.05 317.738 103.918L317.261 99.9471ZM0.38962 3.18603C1.52722 4.73066 2.66171 6.30551 3.79333 7.90835L7.06101 5.60134C5.91493 3.97802 4.7648 2.38142 3.61038 0.813966L0.38962 3.18603ZM10.3748 17.576C12.4885 20.7867 14.5929 24.08 16.6896 27.4406L20.0833 25.3233C17.9717 21.9388 15.8497 18.6178 13.7158 15.3765L10.3748 17.576ZM22.8047 37.4522C24.7969 40.7773 26.7831 44.1495 28.7648 47.5555L32.2222 45.5438C30.2334 42.1259 28.2385 38.7387 26.236 35.3964L22.8047 37.4522ZM34.6282 57.7382C36.5644 61.1305 38.4972 64.5416 40.4284 67.9593L43.9109 65.9915C41.9783 62.5713 40.0423 59.1547 38.1022 55.7554L34.6282 57.7382ZM46.2091 78.2023C48.1413 81.6252 50.0733 85.0419 52.006 88.4385L55.4826 86.4603C53.5533 83.0697 51.6239 79.6575 49.6924 76.236L46.2091 78.2023ZM57.8692 98.6617C59.8533 102.088 61.84 105.481 63.8307 108.825L67.2678 106.779C65.2869 103.452 63.3085 100.073 61.3308 96.6575L57.8692 98.6617ZM69.9481 118.912C72.0524 122.311 74.1633 125.641 76.2824 128.885L79.6314 126.698C77.5323 123.484 75.4388 120.182 73.3489 116.806L69.9481 118.912ZM82.9003 138.682C85.2218 141.994 87.5563 145.186 89.9059 148.238L93.0755 145.798C90.7668 142.8 88.4677 139.655 86.1758 136.386L82.9003 138.682ZM97.4353 157.448C100.145 160.55 102.881 163.445 105.647 166.1L108.417 163.214C105.747 160.652 103.092 157.844 100.448 154.817L97.4353 157.448ZM114.797 173.876C118.194 176.382 121.65 178.499 125.172 180.163L126.88 176.546C123.628 175.01 120.394 173.034 117.172 170.657L114.797 173.876ZM136.856 183.89C138.896 184.225 140.956 184.398 143.034 184.396L143.032 180.396C141.178 180.397 139.336 180.244 137.505 179.943L136.856 183.89ZM143.034 184.396C145.027 184.395 146.94 184.364 148.778 184.304L148.646 180.306C146.854 180.365 144.985 180.395 143.032 180.396L143.034 184.396ZM160.217 183.44C164.428 182.911 168.182 182.167 171.604 181.215L170.532 177.361C167.321 178.254 163.76 178.963 159.719 179.471L160.217 183.44ZM182.499 177.006C186.028 175.21 189.221 173.122 192.331 170.787L189.929 167.588C186.957 169.82 183.961 171.774 180.685 173.441L182.499 177.006ZM201.168 163.516C203.851 161.185 206.619 158.728 209.694 156.102L207.097 153.06C204.007 155.699 201.184 158.203 198.544 160.498L201.168 163.516ZM218.377 148.989C221.12 146.848 224.094 144.63 227.365 142.343L225.072 139.065C221.74 141.396 218.709 143.656 215.916 145.836L218.377 148.989ZM236.728 136.145C238.268 135.18 239.865 134.205 241.522 133.219L239.478 129.781C237.794 130.782 236.17 131.774 234.604 132.755L236.728 136.145ZM241.522 133.219C243.125 132.266 244.71 131.343 246.274 130.45L244.292 126.976C242.706 127.881 241.101 128.816 239.478 129.781L241.522 133.219ZM255.931 125.177C259.322 123.409 262.606 121.785 265.779 120.294L264.078 116.674C260.855 118.189 257.521 119.837 254.082 121.63L255.931 125.177ZM275.802 115.854C279.389 114.362 282.8 113.051 286.024 111.898L284.677 108.132C281.389 109.307 277.916 110.643 274.266 112.16L275.802 115.854ZM296.449 108.499C300.382 107.344 303.919 106.457 307.032 105.774L306.175 101.867C302.972 102.569 299.345 103.48 295.322 104.661L296.449 108.499ZM317.738 103.918C319.498 103.707 320.832 103.602 321.717 103.551C322.16 103.525 322.49 103.512 322.705 103.506C322.812 103.503 322.891 103.501 322.94 103.501C322.965 103.5 322.982 103.5 322.992 103.5C322.997 103.5 323 103.5 323.002 103.5C323.002 103.5 323.002 103.5 323.002 103.5C323.002 103.5 323.002 103.5 323.001 103.5C323.001 103.5 323.001 103.5 323.001 103.5C323.001 103.5 323 103.5 323 103.5C323 103.5 323 103.5 323 101.5C323 99.5 323 99.5 323 99.5C322.999 99.5 322.999 99.5 322.999 99.5C322.999 99.5 322.998 99.5 322.998 99.5C322.997 99.5 322.996 99.5 322.995 99.5C322.993 99.5 322.99 99.5 322.987 99.5C322.981 99.5001 322.973 99.5001 322.963 99.5002C322.944 99.5003 322.917 99.5006 322.883 99.5011C322.814 99.502 322.716 99.5039 322.589 99.5076C322.336 99.5149 321.966 99.5293 321.484 99.5575C320.519 99.6139 319.103 99.7257 317.261 99.9471L317.738 103.918Z" fill="#141D34"/>
</svg>
