<svg width="368" height="150" viewBox="0 0 368 150" fill="none" xmlns="http://www.w3.org/2000/svg">
<path d="M366.496 29.3671C366.422 28.265 365.469 27.4311 364.367 27.5046L346.407 28.7019C345.305 28.7753 344.471 29.7283 344.544 30.8305C344.618 31.9326 345.571 32.7665 346.673 32.693L362.638 31.6287L363.702 47.5933C363.775 48.6954 364.728 49.5293 365.83 49.4558C366.933 49.3824 367.766 48.4294 367.693 47.3272L366.496 29.3671ZM263 115.5L261.891 113.836L263 115.5ZM6.56446 4.21886C7.66888 4.20058 8.54937 3.29046 8.5311 2.18604C8.51282 1.08162 7.6027 0.20113 6.49828 0.219403L6.56446 4.21886ZM18.7081 0.783963C17.6103 0.661842 16.6214 1.45279 16.4993 2.55058C16.3772 3.64838 17.1681 4.63732 18.2659 4.75944L18.7081 0.783963ZM29.7949 6.83579C30.8661 7.10515 31.9529 6.45512 32.2222 5.3839C32.4916 4.31268 31.8416 3.22592 30.7703 2.95655L29.7949 6.83579ZM42.4204 6.74653C41.3955 6.33477 40.2308 6.83184 39.819 7.85679C39.4072 8.88174 39.9043 10.0464 40.9293 10.4582L42.4204 6.74653ZM51.5021 15.5235C52.4663 16.0624 53.6848 15.7175 54.2236 14.7532C54.7624 13.789 54.4175 12.5705 53.4533 12.0317L51.5021 15.5235ZM63.7524 18.5991C62.8554 17.9545 61.6057 18.1591 60.9611 19.0561C60.3165 19.953 60.5211 21.2027 61.4181 21.8473L63.7524 18.5991ZM70.6414 29.1992C71.4719 29.9274 72.7355 29.8445 73.4637 29.014C74.192 28.1835 74.1091 26.9199 73.2786 26.1916L70.6414 29.1992ZM82.0781 34.5752C81.3084 33.783 80.0422 33.7647 79.25 34.5345C78.4577 35.3042 78.4395 36.5704 79.2092 37.3626L82.0781 34.5752ZM87.1874 46.1417C87.9047 46.9817 89.1671 47.0811 90.007 46.3639C90.847 45.6466 90.9465 44.3841 90.2292 43.5442L87.1874 46.1417ZM97.8407 52.945C97.1664 52.0701 95.9106 51.9076 95.0357 52.5819C94.1608 53.2562 93.9982 54.512 94.6725 55.3869L97.8407 52.945ZM101.761 64.9685C102.403 65.8679 103.652 66.0771 104.551 65.4359C105.45 64.7947 105.66 63.5458 105.018 62.6464L101.761 64.9685ZM111.882 72.5537C111.263 71.6385 110.02 71.398 109.105 72.0165C108.189 72.635 107.949 73.8783 108.567 74.7934L111.882 72.5537ZM115.197 84.7594C115.804 85.6822 117.044 85.9382 117.967 85.3311C118.89 84.7241 119.146 83.4839 118.539 82.5611L115.197 84.7594ZM125.118 92.5699C124.509 91.6483 123.268 91.3947 122.346 92.0035C121.425 92.6123 121.171 93.853 121.78 94.7746L125.118 92.5699ZM128.506 104.771C129.134 105.68 130.38 105.908 131.289 105.28C132.197 104.653 132.425 103.407 131.797 102.498L128.506 104.771ZM138.769 112.14C138.097 111.263 136.842 111.097 135.965 111.768C135.088 112.44 134.921 113.695 135.593 114.572L138.769 112.14ZM143.416 123.9C144.172 124.706 145.437 124.746 146.243 123.991C147.048 123.235 147.089 121.969 146.333 121.164L143.416 123.9ZM154.993 128.866C154.087 128.234 152.84 128.455 152.208 129.36C151.575 130.266 151.796 131.513 152.702 132.145L154.993 128.866ZM163.377 137.748C164.377 138.218 165.568 137.788 166.038 136.788C166.508 135.788 166.078 134.597 165.078 134.127L163.377 137.748ZM175.445 138.953C174.438 138.5 173.254 138.949 172.8 139.956C172.347 140.963 172.796 142.147 173.803 142.601L175.445 138.953ZM184.661 146.932C185.712 147.273 186.84 146.698 187.181 145.647C187.522 144.596 186.946 143.468 185.896 143.127L184.661 146.932ZM196.603 145.201C195.5 145.154 194.567 146.011 194.521 147.115C194.474 148.218 195.331 149.151 196.435 149.197L196.603 145.201ZM208.376 147.827C209.445 147.549 210.087 146.458 209.809 145.389C209.532 144.319 208.44 143.678 207.371 143.955L208.376 147.827ZM217.851 140.153C216.843 140.605 216.393 141.788 216.845 142.796C217.297 143.804 218.48 144.255 219.488 143.803L217.851 140.153ZM229.876 138.564C230.843 138.031 231.196 136.815 230.663 135.847C230.13 134.88 228.914 134.527 227.946 135.06L229.876 138.564ZM237.782 129.339C236.838 129.913 236.538 131.143 237.111 132.087C237.684 133.031 238.915 133.332 239.859 132.758L237.782 129.339ZM249.629 126.65C250.56 126.054 250.831 124.817 250.235 123.887C249.64 122.957 248.403 122.685 247.473 123.281L249.629 126.65ZM257.088 117.022C256.166 117.631 255.912 118.871 256.52 119.793C257.129 120.715 258.369 120.969 259.291 120.361L257.088 117.022ZM268.741 114.043C269.654 113.421 269.89 112.177 269.269 111.264C268.647 110.351 267.403 110.115 266.49 110.737L268.741 114.043ZM275.586 104.413C274.686 105.052 274.473 106.301 275.113 107.202C275.752 108.102 277 108.314 277.901 107.675L275.586 104.413ZM286.923 101.144C287.812 100.488 288 99.2359 287.344 98.3473C286.688 97.4587 285.436 97.2702 284.547 97.9263L286.923 101.144ZM293.401 91.2596C292.525 91.9321 292.36 93.1877 293.033 94.0639C293.705 94.9401 294.961 95.1051 295.837 94.4326L293.401 91.2596ZM304.623 87.5587C305.486 86.8701 305.628 85.6117 304.94 84.7481C304.251 83.8844 302.993 83.7426 302.129 84.4312L304.623 87.5587ZM310.726 77.4465C309.875 78.1509 309.756 79.4116 310.461 80.2625C311.165 81.1134 312.426 81.2321 313.277 80.5278L310.726 77.4465ZM321.8 73.3393C322.638 72.6194 322.733 71.3567 322.013 70.5189C321.294 69.6811 320.031 69.5856 319.193 70.3054L321.8 73.3393ZM327.526 63.0092C326.702 63.7445 326.63 65.0088 327.366 65.833C328.101 66.6572 329.365 66.7293 330.189 65.9939L327.526 63.0092ZM338.427 58.5026C339.237 57.7516 339.285 56.4861 338.534 55.6761C337.783 54.8662 336.517 54.8184 335.707 55.5694L338.427 58.5026ZM343.764 47.9473C342.97 48.7146 342.948 49.9807 343.715 50.7753C344.482 51.5699 345.748 51.592 346.543 50.8247L343.764 47.9473ZM354.48 42.9899C355.258 42.205 355.251 40.9387 354.466 40.1615C353.681 39.3844 352.415 39.3907 351.638 40.1756L354.48 42.9899ZM359.307 32.2195C358.553 33.0263 358.595 34.2919 359.402 35.0463C360.209 35.8006 361.475 35.7581 362.229 34.9512L359.307 32.2195ZM0.651976 4.49427C2.65489 4.34188 4.62542 4.25094 6.56446 4.21886L6.49828 0.219403C4.479 0.252813 2.42933 0.347477 0.348506 0.505801L0.651976 4.49427ZM18.2659 4.75944C22.2452 5.2021 26.0851 5.90293 29.7949 6.83579L30.7703 2.95655C26.8862 1.97987 22.8682 1.24674 18.7081 0.783963L18.2659 4.75944ZM40.9293 10.4582C44.5811 11.9253 48.1019 13.6235 51.5021 15.5235L53.4533 12.0317C49.9124 10.0531 46.2382 8.28031 42.4204 6.74653L40.9293 10.4582ZM61.4181 21.8473C64.6001 24.1341 67.6711 26.5946 70.6414 29.1992L73.2786 26.1916C70.2198 23.5095 67.048 20.9675 63.7524 18.5991L61.4181 21.8473ZM79.2092 37.3626C81.9551 40.1887 84.6111 43.1249 87.1874 46.1417L90.2292 43.5442C87.6039 40.4698 84.8902 37.4695 82.0781 34.5752L79.2092 37.3626ZM94.6725 55.3869C97.1035 58.541 99.463 61.7447 101.761 64.9685L105.018 62.6464C102.696 59.3893 100.307 56.1449 97.8407 52.945L94.6725 55.3869ZM108.567 74.7934C110.829 78.1395 113.034 81.4719 115.197 84.7594L118.539 82.5611C116.373 79.2682 114.157 75.92 111.882 72.5537L108.567 74.7934ZM121.78 94.7746C124.054 98.2168 126.292 101.565 128.506 104.771L131.797 102.498C129.606 99.3249 127.385 96.0022 125.118 92.5699L121.78 94.7746ZM135.593 114.572C138.192 117.966 140.792 121.103 143.416 123.9L146.333 121.164C143.825 118.49 141.312 115.461 138.769 112.14L135.593 114.572ZM152.702 132.145C154.484 133.39 156.302 134.457 158.162 135.316L159.838 131.684C158.222 130.938 156.609 129.995 154.993 128.866L152.702 132.145ZM158.162 135.316C159.976 136.153 161.711 136.965 163.377 137.748L165.078 134.127C163.408 133.343 161.664 132.527 159.838 131.684L158.162 135.316ZM173.803 142.601C177.674 144.343 181.233 145.82 184.661 146.932L185.896 143.127C182.67 142.081 179.264 140.672 175.445 138.953L173.803 142.601ZM196.435 149.197C200.241 149.358 204.13 148.929 208.376 147.827L207.371 143.955C203.47 144.968 199.976 145.343 196.603 145.201L196.435 149.197ZM219.488 143.803C222.686 142.368 226.124 140.63 229.876 138.564L227.946 135.06C224.266 137.086 220.927 138.773 217.851 140.153L219.488 143.803ZM239.859 132.758C242.916 130.901 246.164 128.868 249.629 126.65L247.473 123.281C244.028 125.486 240.807 127.502 237.782 129.339L239.859 132.758ZM259.291 120.361C260.857 119.327 262.463 118.262 264.109 117.164L261.891 113.836C260.248 114.931 258.648 115.992 257.088 117.022L259.291 120.361ZM264.109 117.164C265.668 116.125 267.212 115.084 268.741 114.043L266.49 110.737C264.972 111.771 263.439 112.804 261.891 113.836L264.109 117.164ZM277.901 107.675C280.978 105.492 283.986 103.313 286.923 101.144L284.547 97.9263C281.629 100.081 278.642 102.245 275.586 104.413L277.901 107.675ZM295.837 94.4326C298.851 92.1188 301.781 89.8248 304.623 87.5587L302.129 84.4312C299.306 86.6823 296.396 88.9612 293.401 91.2596L295.837 94.4326ZM313.277 80.5278C316.23 78.083 319.072 75.6831 321.8 73.3393L319.193 70.3054C316.483 72.6338 313.66 75.0179 310.726 77.4465L313.277 80.5278ZM330.189 65.9939C333.1 63.3972 335.847 60.8941 338.427 58.5026L335.707 55.5694C333.146 57.9441 330.417 60.43 327.526 63.0092L330.189 65.9939ZM346.543 50.8247C349.514 47.9558 352.164 45.3292 354.48 42.9899L351.638 40.1756C349.342 42.4945 346.713 45.1 343.764 47.9473L346.543 50.8247ZM362.229 34.9512C363.467 33.6269 364.408 32.5973 365.041 31.8967C365.357 31.5465 365.597 31.2785 365.758 31.0971C365.838 31.0065 365.899 30.9374 365.941 30.8906C365.961 30.8672 365.977 30.8493 365.988 30.837C365.993 30.8309 365.997 30.8262 366 30.8228C366.002 30.8212 366.003 30.8199 366.004 30.8189C366.004 30.8185 366.004 30.8181 366.005 30.8178C366.005 30.8176 366.005 30.8175 366.005 30.8174C366.005 30.8173 366.005 30.8173 366.005 30.8173C366.005 30.8172 366.005 30.8172 364.5 29.5001C362.995 28.1831 362.995 28.1831 362.995 28.1831C362.995 28.183 362.995 28.183 362.995 28.183C362.995 28.183 362.995 28.183 362.995 28.183C362.995 28.1831 362.995 28.1832 362.995 28.1835C362.994 28.1839 362.994 28.1848 362.993 28.1859C362.99 28.1883 362.987 28.192 362.983 28.1972C362.974 28.2075 362.96 28.2234 362.941 28.2449C362.903 28.2879 362.845 28.353 362.768 28.4397C362.614 28.6131 362.382 28.8731 362.073 29.2152C361.454 29.8994 360.529 30.9124 359.307 32.2195L362.229 34.9512Z" fill="#141D34"/>
</svg>
