<!--?xml version="1.0" standalone="no"?-->              <svg id="sw-js-blob-svg" viewBox="0 0 100 100" xmlns="http://www.w3.org/2000/svg">                    <defs>                         <linearGradient id="sw-gradient" x1="0" x2="1" y1="1" y2="0">                            <stop id="stop1" stop-color="rgba(229, 245, 245, 1)" offset="0%"></stop>                            <stop id="stop2" stop-color="rgba(229, 245, 245, 1)" offset="100%"></stop>                        </linearGradient>                    </defs>                <path fill="url(#sw-gradient)" d="M17,-27.5C24.1,-25.2,33.6,-25.1,38.6,-20.8C43.6,-16.6,44.1,-8.3,41.1,-1.7C38.2,4.9,31.8,9.8,28.2,16.4C24.6,23,23.8,31.4,19.5,36.2C15.3,41,7.6,42.4,0.5,41.4C-6.6,40.5,-13.1,37.3,-18.7,33.2C-24.2,29.1,-28.7,24.1,-30.9,18.4C-33.2,12.8,-33.2,6.4,-34.6,-0.8C-36,-8,-38.8,-16,-36.7,-22C-34.6,-27.9,-27.6,-31.8,-20.7,-34.2C-13.7,-36.7,-6.9,-37.7,-1,-36C4.9,-34.3,9.8,-29.9,17,-27.5Z" width="100%" height="100%" transform="translate(50 50)" stroke-width="0" style="transition: all 0.3s ease 0s;" stroke="url(#sw-gradient)"></path>              </svg>