<svg width="306" height="358" viewBox="0 0 306 358" fill="none" xmlns="http://www.w3.org/2000/svg">
<path d="M303.353 331.799C304.944 331.335 305.857 329.67 305.394 328.079C304.93 326.489 303.264 325.575 301.674 326.039L303.353 331.799ZM24.6439 320.73L26.8315 318.677L24.6439 320.73ZM63.283 7.71565C62.6393 9.24233 63.355 11.0018 64.8817 11.6456C66.4084 12.2893 68.1679 11.5735 68.8116 10.0469L63.283 7.71565ZM63.0796 23.9794C63.698 22.4423 62.9531 20.6949 61.416 20.0766C59.8788 19.4582 58.1314 20.2031 57.5131 21.7403L63.0796 23.9794ZM51.9381 35.8874C51.3412 37.433 52.1104 39.1698 53.656 39.7667C55.2016 40.3635 56.9384 39.5944 57.5353 38.0488L51.9381 35.8874ZM52.1507 52.2762C52.7268 50.7227 51.9345 48.9964 50.381 48.4203C48.8275 47.8442 47.1012 48.6365 46.5251 50.19L52.1507 52.2762ZM41.3582 64.4122C40.8029 65.9732 41.6181 67.6888 43.1792 68.2441C44.7402 68.7995 46.4558 67.9842 47.0111 66.4232L41.3582 64.4122ZM42.0425 80.6999C42.5762 79.1313 41.7372 77.4271 40.1687 76.8935C38.6001 76.3598 36.8959 77.1988 36.3623 78.7673L42.0425 80.6999ZM31.5625 93.2167C31.0518 94.7929 31.9156 96.4847 33.4918 96.9953C35.068 97.506 36.7597 96.6423 37.2704 95.0661L31.5625 93.2167ZM32.717 109.498C33.203 107.914 32.3129 106.236 30.729 105.75C29.145 105.264 27.467 106.155 26.981 107.739L32.717 109.498ZM22.6438 122.306C22.1846 123.898 23.1029 125.56 24.6949 126.02C26.2868 126.479 27.9496 125.56 28.4088 123.968L22.6438 122.306ZM24.3576 138.51C24.7872 136.91 23.8383 135.265 22.2381 134.835C20.6379 134.406 18.9924 135.355 18.5628 136.955L24.3576 138.51ZM14.7654 151.693C14.3688 153.302 15.3515 154.927 16.9602 155.324C18.5688 155.72 20.1944 154.738 20.591 153.129L14.7654 151.693ZM17.1451 167.822C17.5044 166.205 16.4844 164.602 14.8669 164.243C13.2495 163.884 11.6471 164.904 11.2879 166.521L17.1451 167.822ZM8.17547 181.441C7.85905 183.068 8.92096 184.643 10.5473 184.959C12.1737 185.276 13.7486 184.214 14.065 182.587L8.17547 181.441ZM11.4074 197.42C11.6741 195.785 10.5646 194.243 8.92932 193.977C7.29406 193.71 5.75227 194.82 5.48565 196.455L11.4074 197.42ZM3.29274 211.559C3.08502 213.203 4.24919 214.704 5.89297 214.912C7.53676 215.12 9.03769 213.955 9.2454 212.312L3.29274 211.559ZM7.67425 227.243C7.81093 225.591 6.58317 224.142 4.93196 224.005C3.28075 223.869 1.83138 225.096 1.6947 226.748L7.67425 227.243ZM0.822126 242.024C0.773061 243.68 2.07584 245.063 3.73197 245.112C5.3881 245.161 6.77043 243.858 6.81949 242.202L0.822126 242.024ZM6.85748 257.192C6.79537 255.537 5.40282 254.245 3.74713 254.307C2.09144 254.369 0.799588 255.762 0.8617 257.417L6.85748 257.192ZM2.08027 272.788C2.28639 274.432 3.78619 275.598 5.43018 275.391C7.07416 275.185 8.23978 273.686 8.03366 272.042L2.08027 272.788ZM10.6737 286.548C10.2775 284.939 8.65211 283.956 7.04333 284.352C5.43454 284.748 4.45156 286.374 4.84777 287.982L10.6737 286.548ZM9.75003 302.869C10.4002 304.393 12.1627 305.101 13.6867 304.451C15.2106 303.801 15.9189 302.038 15.2688 300.514L9.75003 302.869ZM22.2833 313.131C21.3175 311.785 19.4432 311.477 18.0969 312.443C16.7507 313.408 16.4423 315.283 17.4081 316.629L22.2833 313.131ZM27.854 327.985C29.102 329.075 30.9971 328.947 32.087 327.699C33.1769 326.451 33.0487 324.556 31.8008 323.466L27.854 327.985ZM43.0149 331.604C41.5968 330.747 39.7526 331.201 38.8956 332.619C38.0387 334.037 38.4935 335.882 39.9115 336.739L43.0149 331.604ZM53.1327 343.469C54.6564 344.12 56.4191 343.412 57.0697 341.888C57.7203 340.364 57.0124 338.601 55.4886 337.951L53.1327 343.469ZM68.713 342.723C67.1271 342.244 65.4527 343.141 64.9731 344.726C64.4935 346.312 65.3903 347.987 66.9762 348.466L68.713 342.723ZM81.1953 352.076C82.8168 352.416 84.4071 351.378 84.7474 349.756C85.0876 348.135 84.0489 346.544 82.4274 346.204L81.1953 352.076ZM96.4495 348.621C94.8082 348.395 93.2941 349.542 93.0677 351.183C92.8412 352.824 93.9882 354.339 95.6295 354.565L96.4495 348.621ZM110.105 356.131C111.757 356.264 113.203 355.033 113.336 353.382C113.469 351.73 112.238 350.284 110.587 350.151L110.105 356.131ZM124.835 350.949C123.179 350.894 121.792 352.192 121.738 353.848C121.683 355.504 122.981 356.891 124.637 356.945L124.835 350.949ZM139.177 357.125C140.834 357.113 142.167 355.76 142.156 354.103C142.144 352.446 140.791 351.113 139.134 351.125L139.177 357.125ZM153.443 350.768C151.788 350.838 150.502 352.236 150.571 353.891C150.64 355.546 152.038 356.832 153.694 356.763L153.443 350.768ZM168.177 355.933C169.83 355.814 171.072 354.378 170.953 352.725C170.834 351.072 169.398 349.829 167.745 349.949L168.177 355.933ZM182.032 348.721C180.383 348.885 179.179 350.354 179.343 352.003C179.507 353.651 180.976 354.855 182.624 354.692L182.032 348.721ZM197.02 353.086C198.664 352.882 199.833 351.385 199.629 349.74C199.426 348.096 197.928 346.928 196.284 347.131L197.02 353.086ZM210.482 345.216C208.843 345.455 207.708 346.978 207.947 348.617C208.186 350.257 209.709 351.392 211.349 351.153L210.482 345.216ZM225.688 348.91C227.322 348.637 228.426 347.091 228.153 345.457C227.881 343.823 226.335 342.719 224.701 342.991L225.688 348.91ZM238.835 340.495C237.206 340.799 236.132 342.365 236.435 343.994C236.739 345.623 238.305 346.697 239.934 346.393L238.835 340.495ZM254.139 343.612C255.762 343.279 256.808 341.693 256.475 340.07C256.142 338.447 254.556 337.401 252.933 337.734L254.139 343.612ZM266.944 334.728C265.327 335.09 264.31 336.694 264.672 338.311C265.034 339.928 266.638 340.945 268.255 340.583L266.944 334.728ZM282.359 337.289C283.969 336.897 284.957 335.274 284.565 333.664C284.173 332.054 282.55 331.067 280.94 331.459L282.359 337.289ZM294.916 327.901C293.315 328.329 292.364 329.973 292.791 331.573C293.219 333.174 294.863 334.126 296.463 333.698L294.916 327.901ZM69 2C66.2568 0.785627 66.2567 0.785679 66.2567 0.785741C66.2567 0.785774 66.2567 0.785845 66.2566 0.785911C66.2566 0.786042 66.2565 0.786211 66.2564 0.786417C66.2562 0.786829 66.256 0.787389 66.2557 0.788097C66.2551 0.789513 66.2542 0.791521 66.253 0.794121C66.2507 0.799319 66.2474 0.806881 66.243 0.816794C66.2342 0.836619 66.2214 0.865846 66.2044 0.904376C66.1705 0.981435 66.1203 1.0957 66.0543 1.24637C65.9224 1.5477 65.7275 1.99465 65.4739 2.58075C64.9668 3.75293 64.225 5.48179 63.283 7.71565L68.8116 10.0469C69.746 7.83093 70.4805 6.11916 70.9806 4.96316C71.2307 4.38517 71.4222 3.94614 71.5507 3.65252C71.615 3.50571 71.6635 3.39525 71.6958 3.32196C71.7119 3.28531 71.724 3.25796 71.7319 3.23999C71.7359 3.23101 71.7388 3.22438 71.7407 3.2201C71.7416 3.21796 71.7423 3.21642 71.7427 3.21546C71.743 3.21498 71.7431 3.21465 71.7432 3.21447C71.7432 3.21438 71.7432 3.21433 71.7433 3.21431C71.7433 3.2143 71.7433 3.21432 71.7433 3.21431C71.7432 3.21434 71.7432 3.21437 69 2ZM57.5131 21.7403C55.8264 25.9333 53.9512 30.6743 51.9381 35.8874L57.5353 38.0488C59.5377 32.8634 61.4027 28.1483 63.0796 23.9794L57.5131 21.7403ZM46.5251 50.19C44.8498 54.7075 43.1201 59.4593 41.3582 64.4122L47.0111 66.4232C48.7637 61.4967 50.4842 56.7701 52.1507 52.2762L46.5251 50.19ZM36.3623 78.7673C34.7665 83.4576 33.1615 88.2817 31.5625 93.2167L37.2704 95.0661C38.8599 90.1604 40.4557 85.364 42.0425 80.6999L36.3623 78.7673ZM26.981 107.739C25.5131 112.523 24.0632 117.385 22.6438 122.306L28.4088 123.968C29.8183 119.082 31.2585 114.252 32.717 109.498L26.981 107.739ZM18.5628 136.955C17.2529 141.834 15.9833 146.753 14.7654 151.693L20.591 153.129C21.7984 148.231 23.0578 143.352 24.3576 138.51L18.5628 136.955ZM11.2879 166.521C10.1833 171.495 9.14194 176.474 8.17547 181.441L14.065 182.587C15.0208 177.675 16.0512 172.748 17.1451 167.822L11.2879 166.521ZM5.48565 196.455C4.65887 201.526 3.92363 206.567 3.29274 211.559L9.2454 212.312C9.86662 207.395 10.5913 202.426 11.4074 197.42L5.48565 196.455ZM1.6947 226.748C1.26644 231.921 0.97035 237.021 0.822126 242.024L6.81949 242.202C6.96431 237.314 7.25393 232.32 7.67425 227.243L1.6947 226.748ZM0.8617 257.417C1.05962 262.693 1.45834 267.827 2.08027 272.788L8.03366 272.042C7.43576 267.273 7.0496 262.314 6.85748 257.192L0.8617 257.417ZM4.84777 287.982C6.139 293.225 7.76039 298.205 9.75003 302.869L15.2688 300.514C13.4217 296.185 11.8976 291.517 10.6737 286.548L4.84777 287.982ZM17.4081 316.629C18.9643 318.798 20.6451 320.853 22.4563 322.783L26.8315 318.677C25.2072 316.946 23.6925 315.096 22.2833 313.131L17.4081 316.629ZM22.4563 322.783C24.1651 324.604 25.9665 326.337 27.854 327.985L31.8008 323.466C30.0581 321.944 28.4001 320.348 26.8315 318.677L22.4563 322.783ZM39.9115 336.739C44.071 339.252 48.4924 341.488 53.1327 343.469L55.4886 337.951C51.0805 336.069 46.9118 333.959 43.0149 331.604L39.9115 336.739ZM66.9762 348.466C71.5707 349.856 76.3205 351.053 81.1953 352.076L82.4274 346.204C77.7063 345.213 73.1259 344.058 68.713 342.723L66.9762 348.466ZM95.6295 354.565C100.376 355.22 105.209 355.737 110.105 356.131L110.587 350.151C105.794 349.765 101.074 349.259 96.4495 348.621L95.6295 354.565ZM124.637 356.945C129.452 357.104 134.305 357.16 139.177 357.125L139.134 351.125C134.337 351.16 129.563 351.104 124.835 350.949L124.637 356.945ZM153.694 356.763C158.53 356.561 163.364 356.281 168.177 355.933L167.745 349.949C162.989 350.292 158.215 350.569 153.443 350.768L153.694 356.763ZM182.624 354.692C187.473 354.211 192.279 353.672 197.02 353.086L196.284 347.131C191.588 347.711 186.83 348.245 182.032 348.721L182.624 354.692ZM211.349 351.153C216.234 350.44 221.022 349.687 225.688 348.91L224.701 342.991C220.073 343.763 215.325 344.509 210.482 345.216L211.349 351.153ZM239.934 346.393C244.872 345.473 249.619 344.539 254.139 343.612L252.933 337.734C248.446 338.655 243.735 339.582 238.835 340.495L239.934 346.393ZM268.255 340.583C273.44 339.422 278.169 338.309 282.359 337.289L280.94 331.459C276.783 332.471 272.091 333.575 266.944 334.728L268.255 340.583ZM296.463 333.698C298.677 333.107 300.395 332.634 301.561 332.308C302.145 332.144 302.59 332.018 302.891 331.932C303.042 331.889 303.156 331.856 303.233 331.834C303.272 331.823 303.301 331.814 303.321 331.808C303.331 331.805 303.339 331.803 303.344 331.802C303.347 331.801 303.349 331.8 303.351 331.8C303.351 331.8 303.352 331.799 303.352 331.799C303.353 331.799 303.353 331.799 303.353 331.799C303.353 331.799 303.353 331.799 303.353 331.799C303.353 331.799 303.353 331.799 302.514 328.919C301.674 326.039 301.674 326.039 301.674 326.039C301.674 326.039 301.674 326.039 301.674 326.039C301.674 326.039 301.674 326.039 301.674 326.039C301.674 326.039 301.673 326.039 301.673 326.039C301.672 326.039 301.671 326.04 301.669 326.04C301.664 326.042 301.658 326.043 301.649 326.046C301.632 326.051 301.605 326.059 301.569 326.069C301.496 326.09 301.387 326.122 301.242 326.163C300.952 326.246 300.517 326.37 299.945 326.53C298.8 326.85 297.106 327.317 294.916 327.901L296.463 333.698Z" fill="#00D2AD"/>
</svg>
